<?xml version="1.0" encoding="UTF-8"?>
<svg id="Layer_2" data-name="Layer 2" xmlns="http://www.w3.org/2000/svg" viewBox="0 0 1189.44 35.93">
  <defs>
    <style>
      .cls-1 {
        fill: #fff;
      }
    </style>
  </defs>
  <g id="Clouds">
    <g id="Clouds_Bottom" data-name="Clouds Bottom">
      <path class="cls-1" d="M249.17,18.21c0,6.05-5.33,11.03-12.19,11.68h-40.68c-5.03-1.38-8.68-5.42-8.68-10.2,0-5.91,5.59-10.7,12.49-10.7.52,0,1.04.03,1.56.08,2.72-5.08,8.7-8.61,15.65-8.61,5.92,0,11.15,2.57,14.25,6.48,1.27-.32,2.58-.48,3.89-.48,7.57,0,13.71,5.26,13.71,11.75Z"/>
      <path class="cls-1" d="M617.25,20.73c0,3.79-1.41,7.45-3.94,10.25-2.54,2.8-6.02,4.55-9.77,4.89-.45.04-.91.06-1.37.06h-35.21c-.41,0-.81-.02-1.22-.07-1.37-.19-2.68-.65-3.86-1.36-1.18-.71-2.21-1.66-3.02-2.78-.81-1.12-1.38-2.4-1.69-3.75-.31-1.35-.34-2.76-.09-4.12.25-1.37.77-2.67,1.53-3.83.76-1.16,1.75-2.15,2.9-2.91,1.15-.76,2.44-1.28,3.8-1.53,1.36-.25,2.75-.21,4.09.1.88-2,2.21-3.77,3.88-5.18,1.67-1.41,3.63-2.41,5.74-2.94,2.11-.53,4.31-.56,6.44-.1,2.12.46,4.12,1.4,5.83,2.75,2.08-2.19,4.77-3.71,7.71-4.35,2.94-.64,6.01-.38,8.81.75,2.8,1.13,5.19,3.08,6.88,5.59,1.69,2.52,2.59,5.48,2.59,8.52h0Z"/>
      <path class="cls-1" d="M61.22,19.76c0,4.71-3.31,8.71-7.9,10.12H7.1c-4.05-.74-7.1-4.04-7.1-7.99,0-4.5,3.95-8.14,8.82-8.14,1.44,0,2.85.31,4.15.94,0-.14-.02-.28-.02-.42,0-3.41,2.99-6.17,6.68-6.17.99,0,1.97.2,2.88.6C25.11,3.81,30.57.44,36.87.44s12.13,3.6,14.62,8.76c5.52.82,9.73,5.24,9.73,10.55Z"/>
      <path class="cls-1" d="M422.44,23.71c0,1.35-.35,2.68-1.03,3.84-.68,1.17-1.65,2.13-2.82,2.79h-53.98c-1.67-.23-3.19-1.09-4.25-2.41-1.06-1.32-1.59-2.99-1.48-4.68s.86-3.28,2.09-4.44c1.23-1.16,2.85-1.81,4.53-1.81.41,0,.82.04,1.23.12.17-2.89,1.43-5.6,3.52-7.59,2.09-1.98,4.85-3.09,7.72-3.09.23,0,.45,0,.68.02,1.42-2.03,3.3-3.69,5.5-4.81,2.2-1.13,4.63-1.7,7.1-1.66,2.46.04,4.88.69,7.04,1.89,2.16,1.2,3.99,2.91,5.34,4.99.21-.01.42-.02.64-.02,2.52,0,4.95.95,6.81,2.66,1.86,1.71,3.01,4.07,3.24,6.6.19-.02.38-.03.58-.03,2,0,3.92.8,5.34,2.23,1.42,1.43,2.21,3.36,2.21,5.38Z"/>
      <path class="cls-1" d="M1016.17,18.21c0,6.05-5.33,11.03-12.19,11.68h-40.68c-5.03-1.38-8.68-5.42-8.68-10.2,0-5.91,5.59-10.7,12.49-10.7.52,0,1.04.03,1.56.08,2.72-5.08,8.7-8.61,15.65-8.61,5.92,0,11.15,2.57,14.25,6.48,1.27-.32,2.58-.48,3.89-.48,7.57,0,13.71,5.26,13.71,11.75Z"/>
      <path class="cls-1" d="M828.22,19.76c0,4.71-3.31,8.71-7.9,10.12h-46.23c-4.05-.74-7.1-4.04-7.1-7.99,0-4.5,3.95-8.14,8.82-8.14,1.44,0,2.85.31,4.15.94,0-.14-.02-.28-.02-.42,0-3.41,2.99-6.17,6.68-6.17.99,0,1.97.2,2.88.6,2.61-4.89,8.06-8.26,14.36-8.26s12.13,3.6,14.62,8.76c5.52.82,9.73,5.24,9.73,10.55Z"/>
      <path class="cls-1" d="M1189.44,23.71c0,1.35-.35,2.68-1.03,3.84-.68,1.17-1.65,2.13-2.82,2.79h-53.98c-1.67-.23-3.19-1.09-4.25-2.41-1.06-1.32-1.59-2.99-1.48-4.68s.86-3.28,2.09-4.44c1.23-1.16,2.85-1.81,4.53-1.81.41,0,.82.04,1.23.12.17-2.89,1.43-5.6,3.52-7.59,2.09-1.98,4.85-3.09,7.72-3.09.23,0,.45,0,.68.02,1.42-2.03,3.3-3.69,5.5-4.81,2.2-1.13,4.63-1.7,7.1-1.66,2.46.04,4.88.69,7.04,1.89,2.16,1.2,3.99,2.91,5.34,4.99.21-.01.42-.02.64-.02,2.52,0,4.95.95,6.81,2.66,1.86,1.71,3.01,4.07,3.24,6.6.19-.02.38-.03.58-.03,2,0,3.92.8,5.34,2.23,1.42,1.43,2.21,3.36,2.21,5.38Z"/>
    </g>
  </g>
</svg>