<?xml version="1.0" encoding="UTF-8"?>
<svg id="Layer_2" data-name="Layer 2" xmlns="http://www.w3.org/2000/svg" viewBox="0 0 1366 106.69">
  <defs>
    <style>
      .cls-1 {
        fill: #fff;
      }

      .cls-2 {
        fill: #f2f2f2;
        opacity: 0;
      }
    </style>
  </defs>
  <g id="Clouds">
    <rect class="cls-2" y=".28" width="1366" height="106"/>
    <g id="Clouds_Top" data-name="Clouds Top">
      <path class="cls-1" d="M981.56,85.46c0,2.35-.62,4.65-1.79,6.68-1.18,2.03-2.87,3.7-4.9,4.85h-93.77c-2.9-.4-5.53-1.9-7.38-4.18-1.85-2.29-2.76-5.19-2.56-8.13.2-2.94,1.49-5.69,3.63-7.71,2.13-2.01,4.95-3.14,7.87-3.14.72,0,1.43.07,2.13.2.29-5.02,2.48-9.73,6.11-13.18,3.63-3.45,8.43-5.37,13.42-5.37.4,0,.78,0,1.18.04,2.46-3.53,5.74-6.4,9.55-8.36,3.81-1.96,8.05-2.95,12.33-2.88,4.28.07,8.48,1.19,12.23,3.28,3.75,2.08,6.94,5.06,9.28,8.67.36-.02.74-.03,1.12-.03,4.38,0,8.6,1.65,11.83,4.63,3.23,2.98,5.24,7.07,5.62,11.46.33-.03.67-.04,1-.04,3.48,0,6.82,1.4,9.28,3.88,2.46,2.48,3.84,5.84,3.84,9.35Z"/>
      <path class="cls-1" d="M680.52,75.9c0,10.51-9.26,19.16-21.17,20.29h-70.67c-8.75-2.4-15.08-9.42-15.08-17.72,0-10.27,9.71-18.59,21.69-18.59.9,0,1.81.05,2.71.14,4.72-8.82,15.12-14.95,27.19-14.95,10.29,0,19.38,4.46,24.76,11.25,2.21-.56,4.48-.84,6.76-.83,13.16,0,23.82,9.14,23.82,20.42Z"/>
      <path class="cls-1" d="M1320,80.28c0,6.59-2.44,12.94-6.85,17.8-4.4,4.87-10.45,7.9-16.97,8.5-.78.07-1.59.11-2.39.11h-61.17c-.71,0-1.41-.04-2.12-.13-2.37-.32-4.65-1.13-6.7-2.36-2.06-1.24-3.85-2.88-5.26-4.83-1.4-1.95-2.4-4.17-2.94-6.52-.53-2.35-.58-4.79-.15-7.16.43-2.37,1.34-4.63,2.65-6.65,1.33-2.01,3.03-3.73,5.03-5.06,2-1.33,4.25-2.23,6.61-2.66s4.77-.37,7.1.18c1.54-3.48,3.84-6.55,6.74-9,2.89-2.44,6.3-4.19,9.97-5.11,3.66-.92,7.48-.98,11.18-.18,3.69.8,7.15,2.43,10.12,4.78,3.62-3.81,8.29-6.45,13.4-7.56,5.11-1.12,10.44-.66,15.31,1.3,4.85,1.96,9.02,5.35,11.95,9.72,2.94,4.37,4.5,9.52,4.5,14.8v.02Z"/>
      <path class="cls-1" d="M320,78.2c0,8.18-5.75,15.13-13.72,17.58h-80.31c-7.04-1.29-12.33-7.01-12.33-13.88,0-7.82,6.86-14.15,15.31-14.15,2.49-.01,4.96.55,7.21,1.64,0-.24-.03-.49-.03-.73,0-5.92,5.2-10.72,11.6-10.72,1.72,0,3.42.35,5,1.04,4.53-8.5,14.01-14.35,24.95-14.35s21.07,6.25,25.41,15.23c9.59,1.42,16.91,9.09,16.91,18.33Z"/>
      <path class="cls-1" d="M1136.65,23.04c-.83,0-1.65.13-2.44.38v-.38c0-2.69-1.06-5.28-2.95-7.18s-4.45-2.97-7.12-2.97c-.6,0-1.19.05-1.78.16-.08-1.51-.59-2.96-1.46-4.19-.87-1.23-2.07-2.19-3.46-2.76-1.39-.57-2.91-.73-4.39-.47-1.48.26-2.85.95-3.96,1.96-1.72-2.92-4.35-5.2-7.48-6.47-3.13-1.27-6.59-1.47-9.84-.58-3.25.9-6.13,2.85-8.17,5.56-2.05,2.7-3.16,6.01-3.16,9.41v.09c-2.93-.34-5.88.5-8.2,2.33-2.32,1.83-3.83,4.52-4.21,7.47-.38,2.95.42,5.93,2.21,8.29,1.79,2.36,4.43,3.92,7.35,4.34.47.06.95.1,1.42.09h61.29c1.57-.83,2.82-2.17,3.55-3.8.73-1.63.9-3.46.47-5.2-.42-1.74-1.41-3.28-2.81-4.39-1.4-1.1-3.12-1.71-4.89-1.71h.02Z"/>
      <path class="cls-1" d="M481.71,38.47c0,1.33-.34,2.65-1,3.81-.66,1.16-1.61,2.12-2.75,2.8h-54.01c-2.52-.64-4.73-2.19-6.2-4.36-1.47-2.17-2.1-4.8-1.78-7.4s1.57-5,3.52-6.74c1.95-1.74,4.46-2.7,7.07-2.7h.62c.89-3.17,2.68-6,5.16-8.14,2.48-2.14,5.53-3.5,8.77-3.91,3.24-.4,6.53.17,9.45,1.64,2.92,1.47,5.35,3.78,6.97,6.63,1.71-.84,3.62-1.2,5.51-1.04,1.9.15,3.72.82,5.28,1.92,1.56,1.1,2.79,2.61,3.58,4.35.79,1.75,1.1,3.67.89,5.58.44-.08.89-.12,1.33-.11,1,0,1.99.19,2.92.58s1.76.95,2.47,1.66c.71.71,1.27,1.56,1.65,2.49.38.93.57,1.93.57,2.94Z"/>
      <path class="cls-1" d="M791.5,26.12c0,1.98-.75,3.88-2.08,5.33-1.34,1.44-3.17,2.32-5.13,2.45h-41.02c-.18,0-.37-.03-.54-.06-.94-.14-1.85-.47-2.66-.97-.81-.5-1.52-1.16-2.07-1.94-.56-.78-.95-1.67-1.16-2.6-.21-.94-.23-1.91-.06-2.85.17-.94.53-1.85,1.05-2.65.52-.8,1.2-1.49,1.99-2.02.79-.53,1.68-.9,2.62-1.08.94-.18,1.9-.17,2.83.04,0-.05,0-.11,0-.16,0-1.29.34-2.55.98-3.66.64-1.11,1.57-2.03,2.68-2.66,1.11-.63,2.37-.96,3.64-.94,1.28.01,2.52.37,3.62,1.03.54-2.65,1.99-5.02,4.11-6.68,2.12-1.66,4.75-2.51,7.43-2.38,2.68.12,5.22,1.21,7.18,3.06,1.95,1.85,3.19,4.34,3.48,7.03.37-.09.74-.14,1.12-.14,1.14,0,2.24.41,3.11,1.16.87.75,1.44,1.78,1.61,2.92,1.97.12,3.82.99,5.18,2.44,1.35,1.45,2.11,3.36,2.11,5.35Z"/>
      <path class="cls-1" d="M116.62,29.52c0,2.81-.81,5.56-2.34,7.92-1.53,2.35-3.71,4.2-6.26,5.33h-51.22c-.3,0-.6,0-.89-.04-1.42-.13-2.79-.57-4.03-1.29-1.23-.72-2.29-1.7-3.11-2.88-.82-1.18-1.37-2.52-1.61-3.93-.25-1.41-.19-2.87.18-4.25.37-1.39,1.03-2.68,1.94-3.78.91-1.1,2.06-1.99,3.34-2.6,1.29-.61,2.7-.93,4.12-.93,1.42,0,2.83.3,4.13.9.09-4.17,1.57-8.19,4.22-11.4,2.65-3.21,6.3-5.42,10.35-6.26,4.05-.85,8.27-.28,11.97,1.6,3.69,1.88,6.65,4.97,8.37,8.77,2.01-1.04,4.24-1.58,6.5-1.58,1.88,0,3.75.37,5.49,1.09,1.74.72,3.32,1.79,4.65,3.13,1.33,1.34,2.39,2.93,3.11,4.69.72,1.75,1.09,3.63,1.09,5.53Z"/>
    </g>
  </g>
</svg>