<?xml version="1.0" encoding="UTF-8"?>
<svg id="Layer_2" data-name="Layer 2" xmlns="http://www.w3.org/2000/svg" viewBox="0 0 298 317.12">
  <defs>
    <style>
      .cls-1, .cls-2, .cls-3 {
        stroke-width: 2px;
      }

      .cls-1, .cls-2, .cls-3, .cls-4 {
        stroke-miterlimit: 10;
      }

      .cls-1, .cls-3, .cls-4 {
        stroke: #c1272d;
      }

      .cls-1, .cls-4 {
        fill: none;
      }

      .cls-2 {
        fill: gray;
        stroke: #666;
      }

      .cls-3 {
        fill: red;
      }

      .cls-4 {
        stroke-width: 3px;
      }
    </style>
  </defs>
  <g id="Layer_6" data-name="Layer 6">
    <path class="cls-2" d="M6.94,280.5h282.13c3.28,0,5.94,2.66,5.94,5.94v25.06H1v-25.06c0-3.28,2.66-5.94,5.94-5.94Z"/>
  </g>
  <g id="Layer_12" data-name="Layer 12">
    <g>
      <line class="cls-4" x1="251" y1="118.5" x2="251" y2="157.5"/>
      <line class="cls-4" x1="290" y1="118.5" x2="290" y2="157.5"/>
      <line class="cls-4" x1="290" y1="157.5" x2="290" y2="196.5"/>
      <line class="cls-4" x1="251" y1="157.5" x2="251" y2="196.5"/>
      <polyline class="cls-4" points="290 196.5 290 235.5 290 274.5"/>
      <polyline class="cls-4" points="251 196.5 251 235.5 251 274.5"/>
      <g>
        <polyline class="cls-4" points="251 157.5 290 118.5 251 118.5 290 157.5"/>
        <polyline class="cls-4" points="290 196.5 251 157.5 290 157.5 251 196.5"/>
        <polyline class="cls-4" points="251 235.5 290 196.5 251 196.5 290 235.5"/>
        <polyline class="cls-4" points="251 274.5 290 235.5 251 235.5 290 274.5"/>
        <polyline class="cls-4" points="251 274.5 251 313.5 290 274.5 251 274.5 290 313.5 290 274.5"/>
      </g>
    </g>
    <g>
      <polyline class="cls-4" points="290 1.5 290 40.5 290 79.5"/>
      <polyline class="cls-4" points="251 1.5 251 40.5 251 79.5"/>
      <g>
        <polyline class="cls-4" points="251 40.5 290 1.5 251 1.5 290 40.5"/>
        <polyline class="cls-4" points="251 79.5 290 40.5 251 40.5 290 79.5"/>
        <polyline class="cls-4" points="251 79.5 251 118.5 290 79.5 251 79.5 290 118.5 290 79.5"/>
      </g>
    </g>
    <rect class="cls-4" x="182.5" y="20.14" width="69" height="18.73"/>
    <polyline class="cls-1" points="182.5 20.14 199.13 38.86 213.06 21 225.84 38.86 236.68 21 251.5 38.86"/>
    <polyline class="cls-1" points="182.5 38.86 198.94 20.14 213.26 38.86 225.06 20.14 237.26 38.86 251.5 20.14"/>
    <path class="cls-3" d="M245.71,304.5h48.58c1.5,0,2.71,1.21,2.71,2.71v2.29h-54v-2.29c0-1.5,1.21-2.71,2.71-2.71Z"/>
  </g>
</svg>