<?xml version="1.0" encoding="UTF-8"?>
<svg id="Layer_2" data-name="Layer 2" xmlns="http://www.w3.org/2000/svg" viewBox="0 0 221.22 330.11">
  <defs>
    <style>
      .cls-1 {
        fill: #fff;
      }

      .cls-2 {
        fill: blue;
      }

      .cls-3 {
        fill: red;
      }

      .cls-4 {
        fill: #f15a24;
      }

      .cls-5 {
        fill: #ff0;
      }
    </style>
  </defs>
  <g id="Layer_5" data-name="Layer 5">
    <g>
      <path class="cls-3" d="M114.59,327.79l91.94-161.86c27.69-48.75,15.36-111.01-29.74-144.31C158.52,8.14,135.81,0,110.61,0h0c-25.2,0-47.91,8.14-66.18,21.62C-.68,54.92-13.01,117.18,14.69,165.93l91.94,161.86c1.76,3.09,6.21,3.09,7.97,0Z"/>
      <path class="cls-4" d="M114.37,252.18l67.99-119.7c20.22-35.59,12.21-81.04-19.85-106.49-14.06-11.17-31.94-17.99-51.91-17.99h0c-19.97,0-37.85,6.82-51.91,17.99-32.05,25.45-40.06,70.9-19.85,106.49l67.99,119.7c1.66,2.92,5.87,2.92,7.53,0Z"/>
      <path class="cls-5" d="M114.91,177.39l44.04-77.53c13.38-23.56,8.55-53.63-12.24-71.01-9.64-8.06-22.11-13.02-36.1-13.02h0c-13.99,0-26.46,4.96-36.1,13.02-20.79,17.37-25.62,47.45-12.24,71.01l44.04,77.53c1.9,3.34,6.71,3.34,8.61,0Z"/>
      <path class="cls-1" d="M113.97,121.12l26.1-45.96c8.22-14.46,5.25-32.97-7.57-43.57-5.87-4.85-13.43-7.83-21.9-7.83h0c-8.47,0-16.03,2.98-21.9,7.83-12.82,10.6-15.79,29.1-7.57,43.57l26.1,45.96c1.48,2.61,5.25,2.61,6.73,0Z"/>
      <path class="cls-2" d="M114.05,85.54l11.46-20.18c3.68-6.49,3.11-14.72-1.84-20.3-3.15-3.55-7.75-5.86-13.06-5.86h0c-5.31,0-9.91,2.31-13.06,5.86-4.95,5.58-5.52,13.81-1.84,20.3l11.46,20.18c1.52,2.67,5.36,2.67,6.88,0Z"/>
    </g>
  </g>
</svg>