<?xml version="1.0" encoding="UTF-8"?>
<svg id="Layer_2" data-name="Layer 2" xmlns="http://www.w3.org/2000/svg" viewBox="0 0 1461.55 293.35">
  <defs>
    <style>
      .cls-1 {
        fill: #5b4c4c;
      }

      .cls-2 {
        fill: #fff;
      }

      .cls-3 {
        fill: none;
        stroke: #000;
        stroke-miterlimit: 10;
        stroke-width: 5px;
      }
    </style>
  </defs>
  <g id="Layer_3" data-name="Layer 3">
    <g>
      <g>
        <polygon class="cls-1" points="1453.84 290.85 1295.13 290.85 1278.4 274.35 1259.52 260.35 1253.32 247.35 1248.4 223.35 1233.97 197.35 1218.9 170.85 1226.4 127.35 1218.9 110.85 1240.9 127.85 1263.9 145.85 1278.9 160.85 1295.9 179.85 1299.9 186.85 1336.9 190.85 1359.9 214.85 1382.9 241.85 1407.9 251.85 1435.9 277.85 1453.84 290.85"/>
        <polygon points="1295.13 290.85 1256.42 290.85 1244.4 284.35 1194.49 278.35 1159.4 254.35 1144.16 200.85 1115.9 170.85 1141.9 151.85 1168.9 136.85 1194.9 133.85 1218.9 110.85 1226.4 127.35 1218.9 170.85 1233.97 197.35 1248.4 223.35 1253.32 247.35 1259.52 260.35 1278.4 274.35 1295.13 290.85"/>
        <path class="cls-1" d="M1256.42,290.85H416.42l-15.02-16.5-14-8-10-12-5-8.24v-12.26l-2.43-15.5-20.57-52,23-59-16-42,7.5-37.56V3.85l24,30,35,33,54,35,35,32,26.5,29.5,27,43,42,19,20,12,19.73,23h34.84l39.43,12,19,6-6.56-18-18.58-17-17.81-9.5,4.95-24.5-9.59-8.5.77-24-12.18-7.5-.5-25.5,15,11,24,22,23,1,16,10.97,16,15.03,26.3,25,28.2,9.5,36.05,22,63.95,10-20-23-5.24-13.5-6.96-15.5,8.51-17.5-13.31-31.5-12-30,4-12-.5-15.5,18,19,11,15,16.5,20.52,21,20.98,18.02,18.75,24,22.75,9.98-3.5,37,22-21.43-38-33.29-18.25-8.53-39.44-12.37-5.81,12.37-25.16v-27.17l-3.75-25.17,23.89,32.5,14.71,11,3.4,13.5,25,21-14.46-45.5-9.54-17.5h-8l1-53-8.55-15.04,1.05-3.46,13,7,13,25,8,18,13,2,9,24,13,25,18,22,20,25,8,11,28.26,30,15.24,53.5,35.09,24,49.91,6,12.02,6.5ZM603.4,260.35l-10.46-17-30.97-9.5-16.57-24.5-38-12,2.53,3.5,16.47,22.81,15,5.69,14,19,20,3,28,9ZM491.4,240.35l35,3-31-20-14-28-41-12-18-19-33-6,27,23,12.41,19.5,46.45,17.5,16.14,22Z"/>
        <polygon points="1024.94 100.85 1039.4 146.35 1014.4 125.35 1011 111.85 996.29 100.85 972.4 68.35 976.15 93.52 976.15 120.69 963.78 145.85 976.15 151.66 984.68 191.1 1017.97 209.35 1039.4 247.35 1002.4 225.35 992.42 228.85 968.42 206.1 950.4 187.35 929.4 166.37 912.9 145.85 925.84 117.63 945.2 93.52 957.9 63.85 966.9 37.85 976.15 52.88 982.9 63.85 993.9 34.85 999.83 15.38 999.85 15.31 1008.4 30.35 1007.4 83.35 1015.4 83.35 1024.94 100.85"/>
        <polygon class="cls-2" points="999.83 15.38 993.9 34.85 982.9 63.85 999.83 15.38"/>
        <polygon points="883.9 111.85 884.4 127.35 880.4 139.35 892.4 169.35 905.71 200.85 897.2 218.35 904.16 233.85 909.4 247.35 929.4 270.35 865.45 260.35 829.4 238.35 801.2 228.85 774.9 203.85 806.9 174.85 824.9 155.85 883.9 111.85"/>
        <polygon class="cls-2" points="824.9 155.85 806.9 174.85 774.9 203.85 824.9 155.85"/>
        <polygon points="733.84 260.35 740.4 278.35 721.4 272.35 681.97 260.35 647.13 260.35 627.4 237.35 607.4 225.35 565.4 206.35 538.4 163.35 511.9 133.85 537.97 117.63 555.9 100.85 551.4 130.35 562.74 130.35 565.84 147.35 575.4 162.35 589.07 176.85 600.4 184.35 603.4 200.85 612.29 206.1 641.71 206.1 656.4 209.35 648.4 186.35 648.9 172.85 657.9 164.85 680.9 143.85 681.4 169.35 693.58 176.85 692.81 200.85 702.4 209.35 697.45 233.85 715.26 243.35 733.84 260.35"/>
        <polygon class="cls-2" points="680.9 143.85 657.9 164.85 648.9 172.85 680.9 143.85"/>
        <polygon class="cls-1" points="648.4 186.35 656.4 209.35 641.71 206.1 612.29 206.1 603.4 200.85 600.4 184.35 589.07 176.85 575.4 162.35 565.84 147.35 562.74 130.35 551.4 130.35 555.9 100.85 571.9 114.85 582.9 123.85 614.9 135.85 633.9 156.85 648.9 172.85 648.4 186.35"/>
        <polygon points="592.94 243.35 603.4 260.35 575.4 251.35 555.4 248.35 541.4 229.35 526.4 223.66 509.93 200.85 507.4 197.35 545.4 209.35 561.97 233.85 592.94 243.35"/>
        <polygon points="526.4 243.35 491.4 240.35 475.26 218.35 428.81 200.85 416.4 181.35 389.4 158.35 422.4 164.35 440.4 183.35 481.4 195.35 495.4 223.35 526.4 243.35"/>
        <polygon points="401.4 274.35 416.42 290.85 377.71 290.85 284.4 257.35 256.4 207.35 197.9 176.85 231.9 134.85 252.9 128.85 291.9 69.85 305.9 63.85 319.9 49.85 343.9 25.85 363.9 3.85 363.9 27.79 356.4 65.35 372.4 107.35 349.4 166.35 369.97 218.35 372.4 233.85 372.4 246.11 377.4 254.35 387.4 266.35 401.4 274.35"/>
        <polygon class="cls-1" points="377.71 290.85 179.52 290.85 167.4 282.35 155.4 225.21 148.4 201.35 162.4 174.35 152.9 145.85 176.9 160.85 197.9 176.85 256.4 207.35 284.4 257.35 377.71 290.85"/>
        <polygon points="179.52 290.85 4.9 290.85 33.9 250.85 75.9 231.4 87.9 224.85 152.9 145.85 162.4 174.35 148.4 201.35 155.4 225.21 167.4 282.35 179.52 290.85"/>
      </g>
      <g>
        <polyline class="cls-3" points="680.9 143.85 695.9 154.85 719.9 176.85 742.9 177.85 758.9 188.82 774.9 203.85"/>
        <polyline class="cls-3" points="555.9 100.85 571.9 114.85 582.9 123.85 614.9 135.85 633.9 156.85 648.9 172.85"/>
        <polyline class="cls-3" points="999.85 15.31 1000.9 11.85 1013.9 18.85 1026.9 43.85 1034.9 61.85 1047.9 63.85 1056.9 87.85 1069.9 112.85 1087.9 134.85 1107.9 159.85 1115.9 170.85 1141.9 151.85 1168.9 136.85 1194.9 133.85 1218.9 110.85 1240.9 127.85 1263.9 145.85 1278.9 160.85 1295.9 179.85 1299.9 186.85 1336.9 190.85 1359.9 214.85 1382.9 241.85 1407.9 251.85 1435.9 277.85 1453.84 290.85 1295.13 290.85 1256.42 290.85 416.42 290.85 377.71 290.85 179.52 290.85 4.9 290.85 33.9 250.85 75.9 231.4 87.9 224.85 152.9 145.85 176.9 160.85 197.9 176.85 231.9 134.85 252.9 128.85 291.9 69.85 305.9 63.85 319.9 49.85 343.9 25.85 363.9 3.85 387.9 33.85 422.9 66.85 476.9 101.85 511.9 133.85"/>
        <polyline class="cls-3" points="883.9 111.85 901.9 130.85 912.9 145.85 925.84 117.63 945.2 93.52 957.9 63.85 966.9 37.85 976.15 52.88"/>
        <polyline class="cls-3" points="152.9 145.85 162.4 174.35 148.4 201.35 155.4 225.21 167.4 282.35 179.52 290.85"/>
        <polyline class="cls-3" points="197.9 176.85 256.4 207.35 284.4 257.35 377.71 290.85"/>
        <polyline class="cls-3" points="363.9 3.85 363.9 27.79 356.4 65.35 372.4 107.35 349.4 166.35 369.97 218.35 372.4 233.85 372.4 246.11 377.4 254.35 387.4 266.35 401.4 274.35 416.42 290.85"/>
        <polygon class="cls-3" points="389.4 158.35 422.4 164.35 440.4 183.35 481.4 195.35 495.4 223.35 526.4 243.35 491.4 240.35 475.26 218.35 428.81 200.85 416.4 181.35 389.4 158.35"/>
        <polygon class="cls-3" points="507.4 197.35 509.93 200.85 526.4 223.66 541.4 229.35 555.4 248.35 575.4 251.35 603.4 260.35 592.94 243.35 561.97 233.85 545.4 209.35 507.4 197.35"/>
        <polygon class="cls-3" points="555.9 100.85 551.4 130.35 562.74 130.35 565.84 147.35 575.4 162.35 589.07 176.85 600.4 184.35 603.4 200.85 612.29 206.1 641.71 206.1 656.4 209.35 648.4 186.35 648.9 172.85 680.9 143.85 681.4 169.35 693.58 176.85 692.81 200.85 702.4 209.35 697.45 233.85 715.26 243.35 733.84 260.35 740.4 278.35 721.4 272.35 681.97 260.35 647.13 260.35 627.4 237.35 607.4 225.35 565.4 206.35 538.4 163.35 511.9 133.85 537.97 117.63 555.9 100.85"/>
        <polygon class="cls-3" points="774.9 203.85 801.2 228.85 829.4 238.35 865.45 260.35 929.4 270.35 909.4 247.35 904.16 233.85 897.2 218.35 905.71 200.85 892.4 169.35 880.4 139.35 884.4 127.35 883.9 111.85 824.9 155.85 774.9 203.85"/>
        <polyline class="cls-3" points="976.15 52.88 982.9 63.85 999.83 15.38 999.85 15.31 1008.4 30.35 1007.4 83.35 1015.4 83.35 1024.94 100.85 1039.4 146.35 1014.4 125.35 1011 111.85 996.29 100.85 972.4 68.35 976.15 93.52 976.15 120.69 963.78 145.85 976.15 151.66 984.68 191.1 1017.97 209.35 1039.4 247.35 1002.4 225.35 992.42 228.85 968.42 206.1 950.4 187.35 929.4 166.37 912.9 145.85"/>
        <polyline class="cls-3" points="1115.9 170.85 1144.16 200.85 1159.4 254.35 1194.49 278.35 1244.4 284.35 1256.42 290.85"/>
        <polyline class="cls-3" points="1218.9 110.85 1226.4 127.35 1218.9 170.85 1233.97 197.35 1248.4 223.35 1253.32 247.35 1259.52 260.35 1278.4 274.35 1295.13 290.85"/>
      </g>
    </g>
  </g>
</svg>