<?xml version="1.0" encoding="UTF-8"?>
<svg id="Layer_2" data-name="Layer 2" xmlns="http://www.w3.org/2000/svg" viewBox="0 0 267.48 400.76">
  <defs>
    <style>
      .cls-1, .cls-2 {
        stroke: #000;
      }

      .cls-1, .cls-2, .cls-3, .cls-4, .cls-5 {
        stroke-miterlimit: 10;
      }

      .cls-1, .cls-4, .cls-5, .cls-6 {
        fill: none;
      }

      .cls-7 {
        fill: #898989;
      }

      .cls-8 {
        fill: #4d4d4d;
      }

      .cls-9, .cls-2, .cls-3 {
        fill: #fff;
      }

      .cls-10 {
        fill: blue;
      }

      .cls-11 {
        opacity: .14;
      }

      .cls-11, .cls-12, .cls-13 {
        fill: #777;
      }

      .cls-11, .cls-12, .cls-13, .cls-14 {
        isolation: isolate;
      }

      .cls-3 {
        stroke: #e6e6e6;
      }

      .cls-12 {
        opacity: .25;
      }

      .cls-4, .cls-6 {
        stroke: #ccc;
      }

      .cls-5 {
        stroke: #fff;
        stroke-width: 3px;
      }

      .cls-15 {
        fill: #1a17aa;
      }

      .cls-13 {
        opacity: .12;
      }

      .cls-14 {
        opacity: .26;
      }

      .cls-6 {
        stroke-linecap: round;
        stroke-linejoin: round;
      }

      .cls-16 {
        fill: #f15a24;
      }
    </style>
  </defs>
  <g id="Layer_5" data-name="Layer 5">
    <g>
      <g id="Fuel_Tank" data-name="Fuel Tank">
        <path id="Tank" class="cls-16" d="M121.6,6.45l-14.98,22.15c-14.18,20.98-21.76,45.72-21.76,71.04v225.41c0,8.1,6.56,14.66,14.66,14.66h68.44c8.1,0,14.66-6.56,14.66-14.66V99.64c0-25.32-7.58-50.06-21.76-71.04l-14.98-22.15c-5.81-8.6-18.48-8.6-24.29,0h0Z"/>
        <path id="Shadow" class="cls-12" d="M133.74,0c-4.62,0-9.24,2.15-12.14,6.45l-14.98,22.15c-14.18,20.98-21.76,45.72-21.76,71.04v225.41c0,8.1,6.56,14.66,14.66,14.66h34.21V0Z"/>
      </g>
      <g id="Body">
        <path id="Hull" class="cls-2" d="M118.07,68.9l-15.17,40.23c-1.53,2.71-2.34,11.15-2.34,14.26v218.57h66.37V123.39c0-3.11-.81-11.55-2.34-14.26l-15.17-40.23c-6.9-12.18-24.44-12.18-31.34,0Z"/>
        <g id="Panels">
          <line class="cls-1" x1="100.5" y1="328.22" x2="166.93" y2="328.22"/>
          <line class="cls-1" x1="133.74" y1="140.16" x2="133.74" y2="294.42"/>
          <polyline class="cls-1" points="166.93 132.07 154.37 132.07 154.37 281.59 148.99 281.59 148.99 309.36 166.93 309.36"/>
          <polyline class="cls-1" points="100.56 132.07 113.11 132.07 113.11 281.59 118.5 281.59 118.5 309.36 100.56 309.36"/>
          <line class="cls-1" x1="104.15" y1="258.83" x2="163.34" y2="258.83"/>
          <line class="cls-1" x1="104.15" y1="217.29" x2="163.34" y2="217.29"/>
          <line class="cls-1" x1="104.15" y1="174.31" x2="163.34" y2="174.31"/>
          <rect class="cls-1" x="104.15" y="140.16" width="59.19" height="154.26"/>
        </g>
        <g id="Window">
          <path class="cls-15" d="M114.76,128.37c1.6-15.47,9.28-27.22,18.52-27.22s16.63,11.28,18.43,26.3l8.46-5.72c-.4-17.88-12.29-32.23-26.89-32.23s-26.91,14.86-26.91,33.18v.2l8.38,5.5h0Z"/>
          <polygon class="cls-5" points="142.04 87.7 125.45 87.7 117.15 90.84 125.45 108.32 141.14 108.32 149.44 90.84 142.04 87.7"/>
        </g>
        <g id="Shadow-2">
          <path class="cls-13" d="M133.74,59.76c-6.11,0-12.22,3.04-15.67,9.13l-15.17,40.23c-1.53,2.71-2.34,11.15-2.34,14.26v218.57h33.18V59.76Z"/>
        </g>
      </g>
      <g id="Rockets">
        <g id="Right">
          <g>
            <g>
              <path class="cls-7" d="M226.09,388.54c.21.91-.76,1.74-2.05,1.74h-11.54v-23.57h6.74c1.01,0,1.88.52,2.05,1.24l4.81,20.59Z"/>
              <polygon class="cls-7" points="212.49 390.24 212.49 390.28 199.92 390.28 199.92 390.24 199.92 367.24 199.92 366.71 212.49 366.71 212.49 367.24 212.49 390.24"/>
              <path class="cls-7" d="M199.92,390.24v.04h-11.53c-1.29,0-2.26-.83-2.05-1.74l4.81-20.59c.17-.71,1.04-1.24,2.05-1.24h6.73v23.52Z"/>
            </g>
            <path class="cls-14" d="M206.21,366.71h-13.01c-1.01,0-1.88.52-2.05,1.24l-4.81,20.59c-.21.91.76,1.74,2.05,1.74h17.82v-23.57Z"/>
            <g>
              <path class="cls-6" d="M212.49,366.71h6.74c1.01,0,1.88.52,2.05,1.24l4.81,20.59c.21.91-.76,1.74-2.05,1.74h-35.65c-1.29,0-2.26-.83-2.05-1.74l4.81-20.59c.17-.71,1.04-1.24,2.05-1.24h19.3Z"/>
              <line class="cls-6" x1="212.49" y1="367.24" x2="215.29" y2="390.24"/>
              <line class="cls-6" x1="199.92" y1="367.24" x2="197.12" y2="390.24"/>
            </g>
          </g>
          <g>
            <path id="Rocket_Body" data-name="Rocket Body" class="cls-3" d="M200.62,33.71l-16.82,41.62c-1.37,3.38-2.07,7-2.07,10.65v275.36c0,3.17,2.57,5.72,5.73,5.72h36.97c3.17,0,5.73-2.56,5.73-5.72V85.98c0-3.65-.7-7.26-2.07-10.65l-16.82-41.62c-1.93-4.77-8.7-4.77-10.63,0h0Z"/>
            <g id="Rocket_Decals" data-name="Rocket Decals">
              <line class="cls-4" x1="196.98" y1="42.74" x2="214.9" y2="42.74"/>
              <line class="cls-4" x1="182.17" y1="81.06" x2="229.71" y2="81.06"/>
              <rect class="cls-10" x="182.17" y="241.98" width="47.53" height="3.53"/>
              <rect class="cls-10" x="182.17" y="187.27" width="47.53" height="3.53"/>
              <rect class="cls-10" x="182.17" y="124.92" width="47.53" height="9.87"/>
              <rect class="cls-10" x="182.17" y="94.42" width="47.53" height="9.87"/>
            </g>
            <path id="Rocket_Shadow" data-name="Rocket Shadow" class="cls-11" d="M206.39,30.15c-2.32-.18-4.74,1-5.77,3.55l-16.82,41.62c-1.37,3.38-2.07,7-2.07,10.65v275.36c0,3.17,2.57,5.72,5.73,5.72h18.93V30.15h0Z"/>
          </g>
        </g>
        <g id="Left">
          <g>
            <g>
              <path class="cls-7" d="M81.7,388.54c.21.91-.76,1.74-2.05,1.74h-11.54v-23.57h6.74c1.01,0,1.88.52,2.05,1.24l4.81,20.59Z"/>
              <polygon class="cls-7" points="68.1 390.24 68.1 390.28 55.53 390.28 55.53 390.24 55.53 367.24 55.53 366.71 68.1 366.71 68.1 367.24 68.1 390.24"/>
              <path class="cls-7" d="M55.53,390.24v.04h-11.53c-1.29,0-2.26-.83-2.05-1.74l4.81-20.59c.17-.71,1.04-1.24,2.05-1.24h6.73v23.52Z"/>
            </g>
            <path class="cls-14" d="M61.81,366.71h-13.01c-1.01,0-1.88.52-2.05,1.24l-4.81,20.59c-.21.91.76,1.74,2.05,1.74h17.82v-23.57Z"/>
            <g>
              <path class="cls-6" d="M68.1,366.71h6.74c1.01,0,1.88.52,2.05,1.24l4.81,20.59c.21.91-.76,1.74-2.05,1.74h-35.65c-1.29,0-2.26-.83-2.05-1.74l4.81-20.59c.17-.71,1.04-1.24,2.05-1.24h19.3Z"/>
              <line class="cls-6" x1="68.1" y1="367.24" x2="70.9" y2="390.24"/>
              <line class="cls-6" x1="55.53" y1="367.24" x2="52.73" y2="390.24"/>
            </g>
          </g>
          <g>
            <path id="Rocket_Body-2" data-name="Rocket Body-2" class="cls-3" d="M56.23,33.71l-16.82,41.62c-1.37,3.38-2.07,7-2.07,10.65v275.36c0,3.17,2.57,5.72,5.73,5.72h36.97c3.17,0,5.73-2.56,5.73-5.72V85.98c0-3.65-.7-7.26-2.07-10.65l-16.82-41.62c-1.93-4.77-8.7-4.77-10.63,0h0Z"/>
            <g id="Rocket_Decals-2" data-name="Rocket Decals-2">
              <line class="cls-4" x1="52.59" y1="42.74" x2="70.5" y2="42.74"/>
              <line class="cls-4" x1="37.78" y1="81.06" x2="85.31" y2="81.06"/>
              <rect class="cls-10" x="37.78" y="241.98" width="47.53" height="3.53"/>
              <rect class="cls-10" x="37.78" y="187.27" width="47.53" height="3.53"/>
              <rect class="cls-10" x="37.78" y="124.92" width="47.53" height="9.87"/>
              <rect class="cls-10" x="37.78" y="94.42" width="47.53" height="9.87"/>
            </g>
            <path id="Rocket_Shadow-2" data-name="Rocket Shadow-2" class="cls-11" d="M61.99,30.15c-2.32-.18-4.74,1-5.77,3.55l-16.82,41.62c-1.37,3.38-2.07,7-2.07,10.65v275.36c0,3.17,2.57,5.72,5.73,5.72h18.93V30.15Z"/>
          </g>
        </g>
      </g>
      <g id="Wings">
        <g id="Left-2">
          <g>
            <g>
              <polygon class="cls-9" points="3.5 341.06 .56 367.52 100.11 367.52 100.11 341.06 15.36 341.06 3.5 341.06"/>
              <path class="cls-8" d="M5.92,319.24l-2.42,21.82h11.86l2.77-21.87c.51-3.71,2.45-7.19,5.55-9.94l48.32-53.49c4.95-4.38,8.53-9.67,10.45-15.42l17.66-63.73v-45.87l-27.07,99.51c-2.25,8.27-6.46,15.88-12.27,22.19l-48.33,52.48c-3.64,3.95-5.93,8.96-6.52,14.3h0Z"/>
              <path class="cls-9" d="M18.13,319.18l-2.77,21.87h84.75v-164.45l-17.66,63.73c-1.92,5.75-5.5,11.04-10.45,15.42l-48.32,53.49c-3.1,2.74-5.04,6.22-5.55,9.94h0Z"/>
            </g>
            <g>
              <path class="cls-1" d="M100.11,176.61v-45.87l-27.07,99.51c-2.25,8.27-6.46,15.88-12.27,22.19l-48.33,52.48c-3.64,3.95-5.93,8.96-6.52,14.3l-2.42,21.82-2.94,26.46h99.55v-26.46"/>
              <line class="cls-1" x1="15.36" y1="341.06" x2="3.5" y2="341.06"/>
              <path class="cls-1" d="M15.36,341.06h84.75v-164.45l-17.66,63.73c-1.92,5.75-5.5,11.04-10.45,15.42l-48.32,53.49c-3.1,2.74-5.04,6.22-5.55,9.94l-2.77,21.87h0Z"/>
            </g>
          </g>
          <path class="cls-2" d="M28.36,358.55h71.75v-157.85l-12.72,48.39c-2.25,8.27-6.46,15.88-12.27,22.19l-36.67,39.92c-3.64,3.96-5.93,8.97-6.52,14.3l-3.57,33.03h0Z"/>
          <polygon class="cls-2" points="3.25 348.68 100.11 348.68 100.11 340.61 4.15 340.61 3.25 348.68"/>
          <rect class="cls-2" x="10.42" y="340.61" width="8.97" height="8.07"/>
          <rect class="cls-2" x="19.39" y="340.61" width="8.97" height="8.07"/>
          <rect class="cls-2" x="28.36" y="340.61" width="8.97" height="8.07"/>
          <rect class="cls-2" x="37.33" y="340.61" width="8.97" height="8.07"/>
          <rect class="cls-2" x="46.3" y="340.61" width="8.97" height="8.07"/>
          <rect class="cls-2" x="55.27" y="340.61" width="8.97" height="8.07"/>
          <rect class="cls-2" x="64.24" y="340.61" width="8.97" height="8.07"/>
          <rect class="cls-2" x="73.2" y="340.61" width="8.97" height="8.07"/>
          <rect class="cls-2" x="82.17" y="340.61" width="8.97" height="8.07"/>
          <rect class="cls-2" x="91.14" y="340.61" width="8.97" height="8.07"/>
        </g>
        <g id="Right-2">
          <g>
            <g>
              <polygon class="cls-9" points="263.98 341.06 266.92 367.52 167.37 367.52 167.37 341.06 252.13 341.06 263.98 341.06"/>
              <path class="cls-8" d="M261.56,319.24l2.42,21.82h-11.86l-2.77-21.87c-.51-3.71-2.45-7.19-5.55-9.94l-48.32-53.49c-4.95-4.38-8.53-9.67-10.45-15.42l-17.66-63.73v-45.87l27.07,99.51c2.25,8.27,6.46,15.88,12.27,22.19l48.33,52.48c3.64,3.95,5.93,8.96,6.52,14.3h0Z"/>
              <path class="cls-9" d="M249.36,319.18l2.77,21.87h-84.75v-164.45l17.66,63.73c1.92,5.75,5.5,11.04,10.45,15.42l48.32,53.49c3.1,2.74,5.04,6.22,5.55,9.94h0Z"/>
            </g>
            <g>
              <path class="cls-1" d="M167.37,176.61v-45.87l27.07,99.51c2.25,8.27,6.46,15.88,12.27,22.19l48.33,52.48c3.64,3.95,5.93,8.96,6.52,14.3l2.42,21.82,2.94,26.46h-99.55v-26.46"/>
              <line class="cls-1" x1="252.13" y1="341.06" x2="263.98" y2="341.06"/>
              <path class="cls-1" d="M252.13,341.06h-84.75v-164.45l17.66,63.73c1.92,5.75,5.5,11.04,10.45,15.42l48.32,53.49c3.1,2.74,5.04,6.22,5.55,9.94l2.77,21.87h0Z"/>
            </g>
          </g>
          <path class="cls-2" d="M239.12,358.55h-71.75v-157.85l12.72,48.39c2.25,8.27,6.46,15.88,12.27,22.19l36.67,39.92c3.64,3.96,5.93,8.97,6.52,14.3l3.57,33.03h0Z"/>
          <polygon class="cls-2" points="264.23 348.68 167.37 348.68 167.37 340.61 263.34 340.61 264.23 348.68"/>
          <rect class="cls-2" x="248.09" y="340.61" width="8.97" height="8.07"/>
          <rect class="cls-2" x="239.12" y="340.61" width="8.97" height="8.07"/>
          <rect class="cls-2" x="230.15" y="340.61" width="8.97" height="8.07"/>
          <rect class="cls-2" x="221.18" y="340.61" width="8.97" height="8.07"/>
          <rect class="cls-2" x="212.22" y="340.61" width="8.97" height="8.07"/>
          <rect class="cls-2" x="203.25" y="340.61" width="8.97" height="8.07"/>
          <rect class="cls-2" x="194.28" y="340.61" width="8.97" height="8.07"/>
          <rect class="cls-2" x="185.31" y="340.61" width="8.97" height="8.07"/>
          <rect class="cls-2" x="176.34" y="340.61" width="8.97" height="8.07"/>
          <rect class="cls-2" x="167.37" y="340.61" width="8.97" height="8.07"/>
        </g>
        <path id="Shadow-3" class="cls-11" d="M60.77,252.45l-48.33,52.48c-3.64,3.95-5.93,8.96-6.52,14.3l-2.42,21.82-2.94,26.46h99.55v-236.77l-27.07,99.51c-2.25,8.27-6.46,15.88-12.27,22.19h0Z"/>
      </g>
      <g id="Jets">
        <g id="Left-3">
          <g>
            <g>
              <path class="cls-7" d="M124.59,398.86c.17.74-.61,1.4-1.65,1.4h-9.27v-18.92h5.41c.82,0,1.52.42,1.65,1l3.87,16.54h0Z"/>
              <polygon class="cls-7" points="113.67 400.22 113.67 400.26 103.58 400.26 103.58 400.22 103.58 381.75 103.58 381.33 113.67 381.33 113.67 381.75 113.67 400.22"/>
              <path class="cls-7" d="M103.58,400.22v.04h-9.26c-1.03,0-1.82-.66-1.65-1.4l3.87-16.54c.13-.57.83-1,1.65-1h5.4v18.9h0Z"/>
            </g>
            <path class="cls-14" d="M108.63,381.33h-10.45c-.82,0-1.52.42-1.65,1l-3.87,16.54c-.17.74.61,1.4,1.65,1.4h14.31v-18.92h0Z"/>
            <g>
              <path class="cls-6" d="M113.67,381.33h5.41c.82,0,1.52.42,1.65,1l3.87,16.54c.17.74-.61,1.4-1.65,1.4h-28.63c-1.03,0-1.82-.66-1.65-1.4l3.87-16.54c.13-.57.83-1,1.65-1h15.5,0Z"/>
              <line class="cls-6" x1="113.67" y1="381.75" x2="115.92" y2="400.22"/>
              <line class="cls-6" x1="103.58" y1="381.75" x2="101.33" y2="400.22"/>
            </g>
          </g>
          <path class="cls-9" d="M123.88,349.58v28.08c0,1.33-1.09,2.41-2.41,2.41h-25.67c-1.33,0-2.41-1.09-2.41-2.41v-28.08c0-8.42,6.83-15.25,15.25-15.25,4.22,0,8.02,1.7,10.78,4.47,2.76,2.76,4.47,6.56,4.47,10.78h0Z"/>
          <path class="cls-1" d="M121.46,380.07h-25.67c-1.33,0-2.41-1.09-2.41-2.41v-28.08c0-8.42,6.83-15.25,15.25-15.25,4.22,0,8.02,1.7,10.78,4.47,2.76,2.76,4.47,6.56,4.47,10.78v28.08c0,1.33-1.09,2.41-2.41,2.41h0Z"/>
          <path class="cls-11" d="M108.63,334.33c-8.42,0-15.25,6.83-15.25,15.25v28.08c0,1.33,1.09,2.41,2.41,2.41h12.83v-45.74Z"/>
        </g>
        <g id="Right-3">
          <g>
            <g>
              <path class="cls-7" d="M174.82,398.86c.17.74-.61,1.4-1.65,1.4h-9.27v-18.92h5.41c.82,0,1.52.42,1.65,1l3.87,16.54h0Z"/>
              <polygon class="cls-7" points="163.89 400.22 163.89 400.26 153.8 400.26 153.8 400.22 153.8 381.75 153.8 381.33 163.89 381.33 163.89 381.75 163.89 400.22"/>
              <path class="cls-7" d="M153.8,400.22v.04h-9.26c-1.03,0-1.82-.66-1.65-1.4l3.87-16.54c.13-.57.83-1,1.65-1h5.4v18.9h0Z"/>
            </g>
            <path class="cls-14" d="M158.85,381.33h-10.45c-.82,0-1.52.42-1.65,1l-3.87,16.54c-.17.74.61,1.4,1.65,1.4h14.31v-18.92h0Z"/>
            <g>
              <path class="cls-6" d="M163.89,381.33h5.41c.82,0,1.52.42,1.65,1l3.87,16.54c.17.74-.61,1.4-1.65,1.4h-28.63c-1.03,0-1.82-.66-1.65-1.4l3.87-16.54c.13-.57.83-1,1.65-1h15.5,0Z"/>
              <line class="cls-6" x1="163.89" y1="381.75" x2="166.14" y2="400.22"/>
              <line class="cls-6" x1="153.8" y1="381.75" x2="151.55" y2="400.22"/>
            </g>
          </g>
          <path class="cls-9" d="M174.1,349.58v28.08c0,1.33-1.09,2.41-2.41,2.41h-25.67c-1.33,0-2.41-1.09-2.41-2.41v-28.08c0-8.42,6.83-15.25,15.25-15.25,4.22,0,8.02,1.7,10.78,4.47s4.47,6.56,4.47,10.78Z"/>
          <path class="cls-1" d="M171.69,380.07h-25.67c-1.33,0-2.41-1.09-2.41-2.41v-28.08c0-8.42,6.83-15.25,15.25-15.25,4.22,0,8.02,1.7,10.78,4.47s4.47,6.56,4.47,10.78v28.08c0,1.33-1.09,2.41-2.41,2.41Z"/>
          <path class="cls-11" d="M158.85,334.33c-8.42,0-15.25,6.83-15.25,15.25v28.08c0,1.33,1.09,2.41,2.41,2.41h12.83v-45.74Z"/>
        </g>
        <g id="Main">
          <g>
            <g>
              <path class="cls-7" d="M149.71,398.86c.17.74-.61,1.4-1.65,1.4h-9.27v-18.92h5.41c.82,0,1.52.42,1.65,1l3.87,16.54h0Z"/>
              <polygon class="cls-7" points="138.78 400.22 138.78 400.26 128.69 400.26 128.69 400.22 128.69 381.75 128.69 381.33 138.78 381.33 138.78 381.75 138.78 400.22"/>
              <path class="cls-7" d="M128.69,400.22v.04h-9.26c-1.03,0-1.82-.66-1.65-1.4l3.87-16.54c.13-.57.83-1,1.65-1h5.4v18.9h0Z"/>
            </g>
            <path class="cls-14" d="M133.74,381.33h-10.45c-.82,0-1.52.42-1.65,1l-3.87,16.54c-.17.74.61,1.4,1.65,1.4h14.31v-18.92h0Z"/>
            <g>
              <path class="cls-6" d="M138.78,381.33h5.41c.82,0,1.52.42,1.65,1l3.87,16.54c.17.74-.61,1.4-1.65,1.4h-28.63c-1.03,0-1.82-.66-1.65-1.4l3.87-16.54c.13-.57.83-1,1.65-1h15.5,0Z"/>
              <line class="cls-6" x1="138.78" y1="381.75" x2="141.03" y2="400.22"/>
              <line class="cls-6" x1="128.69" y1="381.75" x2="126.44" y2="400.22"/>
            </g>
          </g>
          <path class="cls-9" d="M148.99,349.58v28.08c0,1.33-1.09,2.41-2.41,2.41h-25.67c-1.33,0-2.41-1.09-2.41-2.41v-28.08c0-8.42,6.83-15.25,15.25-15.25,4.22,0,8.02,1.7,10.78,4.47s4.47,6.56,4.47,10.78Z"/>
          <path class="cls-1" d="M146.58,380.07h-25.67c-1.33,0-2.41-1.09-2.41-2.41v-28.08c0-8.42,6.83-15.25,15.25-15.25,4.22,0,8.02,1.7,10.78,4.47s4.47,6.56,4.47,10.78v28.08c0,1.33-1.09,2.41-2.41,2.41Z"/>
          <path class="cls-11" d="M133.74,334.33c-8.42,0-15.25,6.83-15.25,15.25v28.08c0,1.33,1.09,2.41,2.41,2.41h12.83v-45.74Z"/>
        </g>
      </g>
    </g>
  </g>
</svg>